<svg width="31" height="31" viewBox="0 0 31 31" fill="none" xmlns="http://www.w3.org/2000/svg">
<path fill-rule="evenodd" clip-rule="evenodd" d="M15.5 0C14.1484 0 13.0526 1.09572 13.0526 2.44737V13.0526H2.44737C1.09572 13.0526 0 14.1483 0 15.5C0 16.8516 1.09572 17.9474 2.44737 17.9474H13.0526V28.5526C13.0526 29.9043 14.1484 31 15.5 31C16.8517 31 17.9474 29.9043 17.9474 28.5526V17.9474H28.5526C29.9043 17.9474 31 16.8516 31 15.5C31 14.1483 29.9043 13.0526 28.5526 13.0526H17.9474V2.44737C17.9474 1.09572 16.8517 0 15.5 0Z" fill="#F0F0FF"/>
</svg>
