<svg width="28" height="29" viewBox="0 0 28 29" fill="none" xmlns="http://www.w3.org/2000/svg">
<path fill-rule="evenodd" clip-rule="evenodd" d="M20.5228 7.62898C19.9375 7.03903 18.9885 7.03903 18.4032 7.62898L13.7222 12.3469L9.14618 7.73469C8.5517 7.13552 7.58787 7.13552 6.99339 7.73469C6.39892 8.33387 6.39892 9.30532 6.99339 9.90449L11.5694 14.5167L6.88853 19.2346C6.3032 19.8246 6.3032 20.7811 6.88853 21.3711C7.47386 21.961 8.42286 21.961 9.00819 21.3711L13.6891 16.6531L18.2651 21.2653C18.8596 21.8645 19.8235 21.8645 20.4179 21.2653C21.0124 20.6662 21.0124 19.6947 20.4179 19.0955L15.8419 14.4833L20.5228 9.7654C21.1082 9.17544 21.1082 8.21894 20.5228 7.62898Z" fill="#F0F0FF"/>
</svg>
