<svg width="33" height="33" viewBox="0 0 33 33" fill="none" xmlns="http://www.w3.org/2000/svg">
<path d="M15.7719 0V3.17655H27.6444C28.2245 3.17672 28.7807 3.40783 29.1909 3.81908C29.601 4.23033 29.8315 4.78805 29.8316 5.36962V17.2732H33V2.63379C33 1.93527 32.7232 1.26536 32.2306 0.771435C31.7379 0.277508 31.0697 1.53378e-05 30.373 0H15.7719ZM20.8303 4.99907C20.6734 4.99905 20.5181 5.03002 20.3732 5.0902C20.2282 5.15038 20.0965 5.2386 19.9856 5.34981C19.8747 5.46103 19.7867 5.59307 19.7266 5.73838C19.6666 5.8837 19.6357 6.03945 19.6357 6.19673V12.2871C19.6357 12.4444 19.6667 12.6001 19.7267 12.7454C19.7867 12.8907 19.8747 13.0227 19.9857 13.1339C20.0966 13.2451 20.2283 13.3333 20.3732 13.3934C20.5181 13.4536 20.6735 13.4846 20.8303 13.4845H26.905C27.0619 13.4846 27.2172 13.4536 27.3621 13.3934C27.5071 13.3333 27.6387 13.2451 27.7497 13.1339C27.8606 13.0227 27.9486 12.8907 28.0086 12.7454C28.0687 12.6001 28.0996 12.4444 28.0996 12.2871V6.19673C28.0996 6.03945 28.0687 5.8837 28.0087 5.73838C27.9487 5.59307 27.8607 5.46103 27.7497 5.34981C27.6388 5.2386 27.5071 5.15038 27.3622 5.0902C27.2172 5.03002 27.0619 4.99905 26.905 4.99907H20.8303ZM11.0125 14.7569C10.8556 14.7569 10.7003 14.7878 10.5553 14.848C10.4104 14.9082 10.2787 14.9964 10.1678 15.1076C10.0569 15.2188 9.96886 15.3508 9.90882 15.4961C9.84878 15.6414 9.81788 15.7971 9.81787 15.9544V22.0447C9.81785 22.202 9.84874 22.3577 9.90876 22.5031C9.96879 22.6484 10.0568 22.7804 10.1677 22.8916C10.2786 23.0029 10.4103 23.0911 10.5553 23.1513C10.7002 23.2114 10.8556 23.2424 11.0125 23.2424H17.0871C17.244 23.2424 17.3993 23.2114 17.5442 23.1512C17.6892 23.091 17.8208 23.0028 17.9317 22.8916C18.0426 22.7803 18.1306 22.6483 18.1906 22.503C18.2506 22.3577 18.2815 22.202 18.2815 22.0447V15.9544C18.2815 15.6368 18.1557 15.3322 17.9317 15.1076C17.7077 14.8831 17.4039 14.7569 17.0871 14.7569H11.0125ZM1.19437 24.5145C1.03751 24.5145 0.882186 24.5455 0.737267 24.6057C0.592349 24.6659 0.460676 24.7541 0.349767 24.8653C0.238858 24.9766 0.150885 25.1086 0.0908714 25.2539C0.0308582 25.3992 -1.99576e-05 25.5549 9.67766e-09 25.7122V31.8025C1.40256e-05 32.1201 0.125854 32.4247 0.349839 32.6493C0.573824 32.8738 0.87761 33 1.19437 33H7.26926C7.58602 33 7.88981 32.8738 8.11379 32.6493C8.33778 32.4247 8.46362 32.1201 8.46363 31.8025V25.7122C8.46365 25.5549 8.43277 25.3992 8.37276 25.2539C8.31275 25.1086 8.22478 24.9766 8.11387 24.8653C8.00296 24.7541 7.87128 24.6659 7.72637 24.6057C7.58145 24.5455 7.42612 24.5145 7.26926 24.5145H1.19437Z" fill="#E4DC00"/>
</svg>
