<svg width="42" height="32" viewBox="0 0 42 32" fill="none" xmlns="http://www.w3.org/2000/svg">
<path d="M28.1991 0.00237888C27.9283 -0.00260644 27.6574 0.00024049 27.3868 0.0109517C25.0326 0.103599 22.7394 0.788133 20.7177 2.00169C18.5779 3.28613 16.817 5.1183 15.6155 7.31042C14.414 9.50253 13.8151 11.9758 13.8802 14.4766C13.9309 16.3862 14.3677 18.2657 15.1641 20.0009L12.9176 21.3022C12.4475 21.5745 11.8498 21.4149 11.5783 20.9433L11.0659 20.0527C11.0176 19.9689 10.9882 19.8808 10.9666 19.7916L1.1771 25.4616C0.0494424 26.1148 -0.334047 27.5511 0.316962 28.6824L1.54619 30.8181C2.1972 31.9495 3.6289 32.3355 4.75653 31.6823L14.5466 26.0117C14.4804 25.9483 14.4182 25.878 14.37 25.794L13.8575 24.9034C13.5861 24.4318 13.7473 23.8334 14.2172 23.5611L16.4662 22.2585C17.7825 24.1246 19.5312 25.6417 21.5616 26.6794C23.5919 27.7172 25.8433 28.2443 28.1218 28.2156C31.8194 28.167 35.349 26.6592 37.9465 24.0187C40.544 21.3782 42.0003 17.8175 42 14.1076L41.9812 13.3722C41.7955 9.8081 40.2703 6.44707 37.7129 3.96624C35.1555 1.48541 31.756 0.0691539 28.1992 0.00282456L28.1991 0.00237888ZM27.5672 4.62472C30.0528 4.52699 32.4767 5.41531 34.3142 7.09738C36.1517 8.77945 37.2549 11.1199 37.385 13.612L37.3987 14.1078C37.3987 16.6035 36.4189 18.9987 34.6714 20.7749C32.9239 22.5511 30.5493 23.5652 28.0619 23.5978C25.5745 23.6303 23.1744 22.6785 21.3814 20.9486C19.5883 19.2187 18.5466 16.8499 18.4818 14.3551C18.4363 12.6046 18.8744 10.8757 19.7476 9.35957C20.6208 7.84343 21.895 6.59919 23.4293 5.76452C24.7038 5.07146 26.1199 4.6815 27.5684 4.62472H27.5672ZM27.8307 5.24286C27.6653 5.23974 27.4999 5.24147 27.3346 5.24803C25.9108 5.3041 24.5239 5.71816 23.3012 6.45219C22.0072 7.22906 20.9423 8.33717 20.2158 9.66295C19.4892 10.9887 19.1271 12.4845 19.1666 13.9969C19.2186 15.9246 19.9201 17.7779 21.1566 19.2544C20.3754 17.98 19.9419 16.5219 19.8997 15.0263C19.8412 12.7834 20.6656 10.6077 22.1945 8.9702C23.7234 7.33271 25.8337 6.3653 28.0684 6.27745C29.363 6.22753 30.652 6.47504 31.8368 7.00109C33.0216 7.52713 34.0709 8.3178 34.9046 9.31274C34.1597 8.0943 33.1215 7.08314 31.8855 6.37215C30.6495 5.66115 29.2552 5.27308 27.8307 5.2436V5.24286Z" fill="#F0F0FF"/>
</svg>
