<svg width="8" height="30" viewBox="0 0 8 30" fill="none" xmlns="http://www.w3.org/2000/svg">
<path fill-rule="evenodd" clip-rule="evenodd" d="M8 4.3125C8 6.69423 6.20914 8.625 4 8.625C1.79086 8.625 0 6.69423 0 4.3125C0 1.93077 1.79086 0 4 0C6.20914 0 8 1.93077 8 4.3125ZM8 15C8 17.3817 6.20914 19.3125 4 19.3125C1.79086 19.3125 0 17.3817 0 15C0 12.6183 1.79086 10.6875 4 10.6875C6.20914 10.6875 8 12.6183 8 15ZM4 30C6.20914 30 8 28.0692 8 25.6875C8 23.3058 6.20914 21.375 4 21.375C1.79086 21.375 0 23.3058 0 25.6875C0 28.0692 1.79086 30 4 30Z" fill="#F0F0FF"/>
</svg>
