<svg width="121" height="186" viewBox="0 0 121 186" fill="none" xmlns="http://www.w3.org/2000/svg">
<path d="M11.876 77.3307V91.1542H110.668V77.3307H11.876ZM13.0195 78.3548H109.378V90.1306H13.0195V78.3548ZM15.0112 79.0631V89.4344H25.3636V79.0631H15.0112ZM26.3047 79.0631V89.4344H36.6571V79.0631H26.3047ZM48.7173 79.0631V89.4344H59.0697V79.0631H48.7173ZM60.0108 79.0631V89.4344H70.3632V79.0631H60.0108ZM95.8096 79.0631V89.4344H106.162V79.0631H95.8096ZM23.3431 92.0946V105.791H50.6871V92.0946H23.3431ZM57.1559 92.0946V105.791H84.4999V92.0946H57.1559ZM24.154 92.9594H49.7233V104.927H24.154V92.9594ZM57.9668 92.9594H83.5361V104.927H57.9668V92.9594ZM26.3047 93.6474V104.019H36.6571V93.6474H26.3047ZM37.5978 93.6474V104.019H47.9502V93.6474H37.5978ZM60.0108 93.6474V104.019H70.3632V93.6474H60.0108ZM71.3039 93.6474V104.019H81.6563V93.6474H71.3039ZM68.1817 106.675V120.372H95.5257V106.675H68.1817ZM68.9925 107.54H94.5619V119.507H68.9925V107.54ZM71.0699 108.337V118.709H81.4223V108.337H71.0699ZM82.3634 108.337V118.709H92.7158V108.337H82.3634Z" fill="#F0F0FF"/>
<mask id="path-2-inside-1" fill="white">
<path fill-rule="evenodd" clip-rule="evenodd" d="M121 4.13159C112.274 1.44604 103.001 -4.48356e-06 93.3892 -4.06516e-06C41.8118 -1.82003e-06 -6.3367e-06 41.6375 -4.08217e-06 93C-1.82765e-06 144.362 41.8118 186 93.3892 186C103.001 186 112.274 184.554 121 181.868L121 4.13159Z"/>
</mask>
<path fill-rule="evenodd" clip-rule="evenodd" d="M121 4.13159C112.274 1.44604 103.001 -4.48356e-06 93.3892 -4.06516e-06C41.8118 -1.82003e-06 -6.3367e-06 41.6375 -4.08217e-06 93C-1.82765e-06 144.362 41.8118 186 93.3892 186C103.001 186 112.274 184.554 121 181.868L121 4.13159Z" fill="#636380" fill-opacity="0.1"/>
<path d="M121 4.13159L124 4.13159L124 1.91599L121.882 1.26431L121 4.13159ZM121 181.868L121.882 184.736L124 184.084L124 181.868L121 181.868ZM93.3892 3C102.699 3 111.674 4.40034 120.118 6.99887L121.882 1.26431C112.873 -1.50826 103.303 -3 93.3892 -3L93.3892 3ZM3 93C2.99999 43.3062 43.4568 3 93.3892 3L93.3892 -3C40.1668 -3 -3.00001 39.9689 -3 93L3 93ZM93.3892 183C43.4568 183 3 142.694 3 93L-3 93C-3 146.031 40.1668 189 93.3892 189L93.3892 183ZM120.118 179.001C111.674 181.6 102.699 183 93.3892 183L93.3892 189C103.303 189 112.874 187.508 121.882 184.736L120.118 179.001ZM124 181.868L124 4.13159L118 4.13159L118 181.868L124 181.868Z" fill="#F0F0FF" fill-opacity="0.1" mask="url(#path-2-inside-1)"/>
</svg>
