<svg width="188" height="188" viewBox="0 0 188 188" fill="none" xmlns="http://www.w3.org/2000/svg">
<circle cx="94.0001" cy="94" r="87.037" fill="#F0F0FF" fill-opacity="0.7"/>
<mask id="path-2-inside-1" fill="white">
<path d="M40.0903 16.9952C21.767 29.823 8.61847 48.7641 3.00665 70.4159C-2.60516 92.0676 -0.312415 115.011 9.47301 135.124C19.2584 155.237 35.8952 171.202 56.3945 180.15C76.8938 189.098 99.9121 190.443 121.314 183.944C142.716 177.445 161.099 163.527 173.161 144.69C185.223 125.854 190.173 103.334 187.121 81.1759C184.07 59.0179 173.217 38.674 156.513 23.7992C139.809 8.92435 118.348 0.493403 95.9854 0.0209702L94 94L40.0903 16.9952Z"/>
</mask>
<path d="M40.0903 16.9952C21.767 29.823 8.61847 48.7641 3.00665 70.4159C-2.60516 92.0676 -0.312415 115.011 9.47301 135.124C19.2584 155.237 35.8952 171.202 56.3945 180.15C76.8938 189.098 99.9121 190.443 121.314 183.944C142.716 177.445 161.099 163.527 173.161 144.69C185.223 125.854 190.173 103.334 187.121 81.1759C184.07 59.0179 173.217 38.674 156.513 23.7992C139.809 8.92435 118.348 0.493403 95.9854 0.0209702L94 94L40.0903 16.9952Z" fill="#E4DC00"/>
<path d="M40.0903 16.9952C21.767 29.823 8.61847 48.7641 3.00665 70.4159C-2.60516 92.0676 -0.312415 115.011 9.47301 135.124C19.2584 155.237 35.8952 171.202 56.3945 180.15C76.8938 189.098 99.9121 190.443 121.314 183.944C142.716 177.445 161.099 163.527 173.161 144.69C185.223 125.854 190.173 103.334 187.121 81.1759C184.07 59.0179 173.217 38.674 156.513 23.7992C139.809 8.92435 118.348 0.493403 95.9854 0.0209702L94 94L40.0903 16.9952Z" stroke="black" stroke-width="2" mask="url(#path-2-inside-1)"/>
<path d="M40.0903 16.9952C21.767 29.823 8.61847 48.7641 3.00665 70.4159C-2.60516 92.0676 -0.312415 115.011 9.47301 135.124C19.2584 155.237 35.8952 171.202 56.3945 180.15C76.8938 189.098 99.9121 190.443 121.314 183.944C142.716 177.445 161.099 163.527 173.161 144.69C185.223 125.854 190.173 103.334 187.121 81.1759C184.07 59.0179 173.217 38.674 156.513 23.7992C139.809 8.92435 118.348 0.493403 95.9854 0.0209702L94 94L40.0903 16.9952Z" stroke="url(#paint0_linear)" stroke-width="2" mask="url(#path-2-inside-1)"/>
<ellipse cx="94.0001" cy="94" rx="72.7015" ry="72.7015" fill="#32324D"/>
<path d="M63.304 67.312C53.368 67.312 46.168 74.584 46.168 84.664C46.168 94.312 52.072 101.656 62.368 101.656C66.76 101.656 70.432 100.072 73.24 96.904L75.616 92.8C75.112 109.936 69.28 115.408 62.08 115.408C56.32 115.408 52.936 112.24 51.64 105.904L51.496 105.184H46.744L46.888 105.904C47.968 113.896 53.224 119.008 61.792 119.008C72.232 119.008 80.296 110.368 80.296 90.424C80.296 74.08 73.888 67.312 63.304 67.312ZM63.16 98.056C55.168 98.056 51.136 91.936 51.136 84.16C51.136 76.528 56.032 70.912 63.304 70.912C70.648 70.912 75.112 77.032 75.112 84.736C75.112 93.016 69.64 98.056 63.16 98.056ZM103.591 67.312C90.5594 67.312 86.1674 78.4 86.1674 93.16C86.1674 107.848 90.5594 119.008 103.591 119.008C116.551 119.008 120.943 107.848 120.943 93.16C120.943 78.472 116.551 67.312 103.591 67.312ZM103.591 115.408C94.5194 115.408 91.1354 106.408 91.1354 93.16C91.1354 79.84 94.5194 70.912 103.591 70.912C112.663 70.912 115.975 79.912 115.975 93.16C115.975 106.408 112.663 115.408 103.591 115.408ZM130.667 92.728C127.571 92.728 125.591 95.032 125.591 98.452C125.591 101.836 127.571 104.176 130.667 104.176C133.763 104.176 135.707 101.836 135.707 98.452C135.707 95.032 133.763 92.728 130.667 92.728ZM129.875 118L146.003 93.16H143.663L127.571 118H129.875ZM130.667 94.384C132.431 94.384 133.511 95.896 133.511 98.452C133.511 100.972 132.431 102.556 130.667 102.556C128.903 102.556 127.823 100.972 127.823 98.452C127.823 95.896 128.903 94.384 130.667 94.384ZM142.871 107.056C139.775 107.056 137.795 109.36 137.795 112.78C137.795 116.164 139.775 118.504 142.871 118.504C145.967 118.504 147.911 116.164 147.911 112.78C147.911 109.36 145.967 107.056 142.871 107.056ZM142.871 108.676C144.635 108.676 145.715 110.224 145.715 112.78C145.715 115.3 144.635 116.884 142.871 116.884C141.107 116.884 140.027 115.3 140.027 112.78C140.027 110.224 141.107 108.676 142.871 108.676Z" fill="#F0F0FF"/>
<defs>
<linearGradient id="paint0_linear" x1="94" y1="0" x2="94" y2="188" gradientUnits="userSpaceOnUse">
<stop stop-color="white"/>
<stop offset="1" stop-color="white" stop-opacity="0"/>
</linearGradient>
</defs>
</svg>
