<svg width="42" height="42" viewBox="0 0 42 42" fill="none" xmlns="http://www.w3.org/2000/svg">
<path fill-rule="evenodd" clip-rule="evenodd" d="M42 21C42 32.598 32.598 42 21 42C9.40202 42 0 32.598 0 21C0 9.40202 9.40202 0 21 0C32.598 0 42 9.40202 42 21ZM37.8 21C37.8 30.2784 30.2784 37.8 21 37.8C11.7216 37.8 4.19999 30.2784 4.19999 21C4.19999 11.7216 11.7216 4.19998 21 4.19998C30.2784 4.19998 37.8 11.7216 37.8 21ZM20.9045 7.82728C19.9029 7.82728 19.0909 8.63927 19.0909 9.64091V18.9955C19.0909 19.3742 19.207 19.7259 19.4056 20.0167C19.2064 20.3282 19.0909 20.6983 19.0909 21.0954C19.0909 22.2025 19.9884 23.1 21.0954 23.1C21.1986 23.1 21.2999 23.0922 21.3989 23.0772C21.5124 23.4648 21.7555 23.8171 22.1148 24.0631L24.7865 25.8917C25.6131 26.4574 26.7418 26.2459 27.3076 25.4193C27.8733 24.5928 27.6618 23.4641 26.8352 22.8983L24.1635 21.0698C23.8297 20.8412 23.4465 20.7395 23.071 20.754C23.0038 20.3621 22.8227 20.0091 22.5632 19.7302C22.6628 19.5056 22.7182 19.257 22.7182 18.9955V9.64091C22.7182 8.63927 21.9062 7.82728 20.9045 7.82728Z" fill="#F0F0FF"/>
</svg>
