<svg width="26" height="40" viewBox="0 0 26 40" fill="none" xmlns="http://www.w3.org/2000/svg">
<mask id="path-1-inside-1" fill="white">
<path fill-rule="evenodd" clip-rule="evenodd" d="M-5.51858e-06 39.1115C1.87504 39.689 3.86752 40 5.93289 40C17.0156 40 26 31.0457 26 20C26 8.9543 17.0156 -3.94032e-07 5.93289 -8.80095e-07C3.86753 -9.70677e-07 1.87504 0.310976 -3.85341e-06 0.888513L-5.51858e-06 39.1115Z"/>
</mask>
<path fill-rule="evenodd" clip-rule="evenodd" d="M-5.51858e-06 39.1115C1.87504 39.689 3.86752 40 5.93289 40C17.0156 40 26 31.0457 26 20C26 8.9543 17.0156 -3.94032e-07 5.93289 -8.80095e-07C3.86753 -9.70677e-07 1.87504 0.310976 -3.85341e-06 0.888513L-5.51858e-06 39.1115Z" fill="#636380" fill-opacity="0.1"/>
<path d="M-5.51858e-06 39.1115L-3.00001 39.1115L-3.00001 41.3265L-0.883102 41.9786L-5.51858e-06 39.1115ZM-3.85341e-06 0.888513L-0.8831 -1.97857L-3 -1.32653L-3 0.888513L-3.85341e-06 0.888513ZM5.93289 37C4.17015 37 2.4752 36.7348 0.883091 36.2444L-0.883102 41.9786C1.27488 42.6432 3.5649 43 5.93289 43L5.93289 37ZM23 20C23 29.3794 15.3683 37 5.93289 37L5.93289 43C18.663 43 29 32.712 29 20L23 20ZM5.93289 3C15.3683 3 23 10.6206 23 20L29 20C29 7.28798 18.663 -3 5.93289 -3L5.93289 3ZM0.883093 3.75559C2.4752 3.2652 4.17015 3 5.93289 3L5.93289 -3C3.5649 -3 1.27488 -2.64325 -0.8831 -1.97857L0.883093 3.75559ZM-3 0.888513L-3.00001 39.1115L2.99999 39.1115L3 0.888513L-3 0.888513Z" fill="#F0F0FF" fill-opacity="0.1" mask="url(#path-1-inside-1)"/>
<path fill-rule="evenodd" clip-rule="evenodd" d="M13.5475 17.8273C14.7211 18.9969 14.7211 20.8932 13.5475 22.0628L8.52007 27.0735C8.14742 27.4449 8.14742 28.047 8.52007 28.4184C8.89273 28.7899 9.49692 28.7899 9.86957 28.4184L17.0219 21.29C17.0219 21.29 17.0219 21.29 17.0219 21.29C17.0219 21.29 17.0219 21.29 17.0219 21.29L17.6967 20.6176C18.0693 20.2462 18.0693 19.644 17.6967 19.2726L10.1395 11.7407C9.76683 11.3693 9.16264 11.3693 8.78999 11.7407C8.41734 12.1121 8.41734 12.7143 8.78999 13.0857L13.5475 17.8273Z" fill="#F0F0FF" fill-opacity="0.7"/>
</svg>
