<svg width="29" height="29" viewBox="0 0 29 29" fill="none" xmlns="http://www.w3.org/2000/svg">
<path d="M16.0179 10.9937C16.2058 10.4301 16.7068 10.1326 17.4113 10.1326C17.5679 10.1326 17.7558 10.1482 17.9593 10.1952L18.2412 8.69216C17.881 8.62948 17.4583 8.58256 16.7068 8.58256C15.2977 8.58256 14.3113 9.33409 13.9042 10.8215C13.8259 11.1033 13.7477 11.4791 13.685 11.7765L13.6224 12.121H12.8709L12.636 13.5458H13.3719L12.1663 20.3878H14.327L15.5325 13.5458H17.2235L17.474 12.121H15.7674L15.8457 11.7139C15.877 11.4947 15.9396 11.2755 16.0179 10.9937L16.0179 10.9937ZM9.71408 8.95837C9.00953 8.95837 8.52417 9.42807 8.52417 10.1013C8.52417 10.7902 9.00953 11.2443 9.71408 11.2443C10.4186 11.2443 10.904 10.7902 10.904 10.1013C10.904 9.42807 10.4186 8.95837 9.71408 8.95837ZM10.7944 20.3878V12.0584H8.63377V20.3878H10.7944ZM0 0V29H29V0H0ZM2.51531 2.51532H26.4847V26.4847H2.51531V2.51532ZM22.9072 16.5077V22.9072H16.5077V24.6639H24.6639V16.5077H22.9072ZM4.33609 16.5077V24.6639H12.4923V22.9072H6.09282V16.5077H4.33609ZM16.5077 4.33608V6.09282H22.9072V12.4923H24.6639V4.33608H16.5077ZM4.33609 4.33608V12.4923H6.09282V6.09282H12.4923V4.33608H4.33609Z" fill="#F0F0FF" fill-opacity="0.7"/>
</svg>
