<svg width="70" height="70" viewBox="0 0 70 70" fill="none" xmlns="http://www.w3.org/2000/svg">
<ellipse cx="35.0001" cy="34.9999" rx="32.4074" ry="32.4074" fill="#F0F0FF" fill-opacity="0.7"/>
<path d="M14.9272 6.328C8.10475 11.1043 3.209 18.1568 1.1195 26.2187C-0.970008 34.2805 -0.116325 42.8232 3.52718 50.3121C7.17069 57.8011 13.3652 63.7454 20.9979 67.0771C28.6307 70.4089 37.2013 70.9098 45.1702 68.4898C53.139 66.0698 59.9838 60.8876 64.4749 53.8741C68.966 46.8605 70.8089 38.4754 69.6728 30.2251C68.5366 21.9747 64.4957 14.3999 58.276 8.8614C52.0564 3.32289 44.0656 0.183714 35.7393 0.00780806L35 35L14.9272 6.328Z" fill="#E4DC00"/>
<ellipse cx="35" cy="35" rx="27.0697" ry="27.0697" fill="#32324D"/>
</svg>
