<svg width="40" height="40" viewBox="0 0 40 40" fill="none" xmlns="http://www.w3.org/2000/svg">
<path fill-rule="evenodd" clip-rule="evenodd" d="M17.222 0L16.1426 4.81053C14.6801 5.1808 13.2995 5.75675 12.0334 6.50581L7.87962 3.8361L3.86672 7.84899L6.50978 12.0267C5.76001 13.2926 5.18333 14.673 4.81233 16.1355L0 17.1793V22.778L4.81051 23.8574C5.18078 25.3199 5.75674 26.7005 6.5058 27.9666L3.83611 32.1204L7.84901 36.1333L12.0267 33.4902C13.2925 34.24 14.673 34.8167 16.1355 35.1877L17.1793 40H22.778L23.8574 35.1895C25.3199 34.8192 26.7005 34.2433 27.9666 33.4942L32.1204 36.1639L36.1333 32.151L33.4902 27.9733C34.24 26.7074 34.8167 25.327 35.1877 23.8645L40 22.8207V17.222L35.1895 16.1426C34.8192 14.6801 34.2432 13.2995 33.4942 12.0334L36.1638 7.87963L32.151 3.86674L27.9732 6.50978C26.7074 5.76002 25.327 5.18334 23.8645 4.81235L22.8207 0H17.222ZM20 30.9025C26.0213 30.9025 30.9025 26.0213 30.9025 20C30.9025 13.9787 26.0213 9.09749 20 9.09749C13.9787 9.09749 9.09749 13.9787 9.09749 20C9.09749 26.0213 13.9787 30.9025 20 30.9025Z" fill="#F0F0FF" fill-opacity="0.7"/>
</svg>
