<svg width="72" height="72" viewBox="0 0 72 72" fill="none" xmlns="http://www.w3.org/2000/svg">
<path fill-rule="evenodd" clip-rule="evenodd" d="M72 36C72 55.8823 55.8823 72 36 72C16.1177 72 0 55.8823 0 36C0 16.1177 16.1177 0 36 0C55.8823 0 72 16.1177 72 36ZM67.3548 35.8341C67.3548 53.0593 53.3911 67.023 36.1659 67.023C18.9407 67.023 4.97695 53.0593 4.97695 35.8341C4.97695 18.6089 18.9407 4.64516 36.1659 4.64516C53.3911 4.64516 67.3548 18.6089 67.3548 35.8341ZM46.4516 25.2166C46.4516 30.8972 41.8465 35.5023 36.1659 35.5023C30.4852 35.5023 25.8802 30.8972 25.8802 25.2166C25.8802 19.5359 30.4852 14.9309 36.1659 14.9309C41.8465 14.9309 46.4516 19.5359 46.4516 25.2166ZM55.0962 51.9675C56.3618 50.6474 57.0691 49.1734 57.0691 47.6185C57.0691 41.9624 47.7105 37.3773 36.1659 37.3773C24.6214 37.3773 15.2627 41.9624 15.2627 47.6185C15.2627 49.1734 15.97 50.6474 17.2356 51.9675H55.0962Z" fill="#F0F0FF" fill-opacity="0.7"/>
</svg>
